<svg width="65" height="65" viewBox="0 0 65 65" fill="none" xmlns="http://www.w3.org/2000/svg">
<circle cx="32.5" cy="32.5" r="32.5" fill="white"/>
<g clip-path="url(#clip0_17_207)">
<path d="M13.1667 51.8333C13.1667 47.413 14.9226 43.1737 18.0482 40.0481C21.1738 36.9225 25.4131 35.1666 29.8333 35.1666C34.2536 35.1666 38.4928 36.9225 41.6185 40.0481C44.7441 43.1737 46.5 47.413 46.5 51.8333H13.1667ZM29.8333 33.0833C22.9271 33.0833 17.3333 27.4895 17.3333 20.5833C17.3333 13.677 22.9271 8.08325 29.8333 8.08325C36.7396 8.08325 42.3333 13.677 42.3333 20.5833C42.3333 27.4895 36.7396 33.0833 29.8333 33.0833ZM50.6667 41.4166H59V45.5833H50.6667V41.4166ZM44.4167 30.9999H59V35.1666H44.4167V30.9999ZM48.5833 20.5833H59V24.7499H48.5833V20.5833Z" fill="black"/>
</g>
<defs>
<clipPath id="clip0_17_207">
<rect width="50" height="50" fill="white" transform="translate(9 6)"/>
</clipPath>
</defs>
</svg>
