<svg width="65" height="65" viewBox="0 0 65 65" fill="none" xmlns="http://www.w3.org/2000/svg">
<circle cx="32.5" cy="32.5" r="32.5" fill="white"/>
<path d="M22.1907 45.2501C21.473 42.1206 18.2347 39.5615 16.9055 37.8751C14.6295 34.9823 13.203 31.4944 12.7906 27.813C12.3781 24.1317 12.9963 20.4067 14.574 17.0671C16.1518 13.7275 18.6248 10.9093 21.7083 8.93699C24.7917 6.9647 28.3602 5.9186 32.0026 5.91919C35.645 5.91978 39.2131 6.96705 42.296 8.94035C45.3789 10.9136 47.851 13.7327 49.4277 17.0728C51.0044 20.4128 51.6214 24.1381 51.2078 27.8193C50.7941 31.5005 49.3666 34.988 47.0897 37.88C45.7605 39.5639 42.527 42.1231 41.8092 45.2501H22.1907ZM41.6667 50.1667V52.6251C41.6667 53.929 41.1574 55.1796 40.251 56.1017C39.3446 57.0237 38.1152 57.5417 36.8333 57.5417H27.1667C25.8848 57.5417 24.6554 57.0237 23.749 56.1017C22.8426 55.1796 22.3333 53.929 22.3333 52.6251V50.1667H41.6667ZM34.4167 25.5957V15.7501L23.5417 30.5124H29.5833V40.3457L40.4583 25.5957H34.4167Z" fill="black"/>
</svg>
