<svg width="30" height="25" viewBox="0 0 30 25" fill="none" xmlns="http://www.w3.org/2000/svg">
<path d="M4.16667 2.08331H20.8333C21.1096 2.08331 21.3746 2.19306 21.5699 2.38841C21.7653 2.58376 21.875 2.84871 21.875 3.12498V23.2041C21.8751 23.2911 21.8534 23.3766 21.812 23.453C21.7705 23.5294 21.7107 23.5942 21.6378 23.6415C21.5649 23.6889 21.4813 23.7172 21.3946 23.7239C21.308 23.7307 21.221 23.7156 21.1417 23.6802L12.5 19.8229L3.85833 23.6791C3.77907 23.7146 3.6922 23.7296 3.60564 23.7229C3.51907 23.7162 3.43556 23.688 3.36268 23.6408C3.28981 23.5936 3.2299 23.5289 3.18839 23.4527C3.14687 23.3764 3.12509 23.291 3.125 23.2041V3.12498C3.125 2.84871 3.23475 2.58376 3.4301 2.38841C3.62545 2.19306 3.8904 2.08331 4.16667 2.08331ZM19.7917 20.7969V4.16665H5.20833V20.7969L12.5 17.5427L19.7917 20.7969ZM12.5 14.0625L9.43854 15.6719L10.0229 12.2635L7.54687 9.84894L10.9698 9.35102L12.5 6.24998L14.0312 9.35102L17.4531 9.84894L14.9771 12.2635L15.5604 15.6719L12.5 14.0625Z" fill="#8D0E0E"/>
</svg>
