<svg width="65" height="65" viewBox="0 0 65 65" fill="none" xmlns="http://www.w3.org/2000/svg">
<circle cx="32.5" cy="32.5" r="32.5" fill="white"/>
<path d="M33 58.6666C18.272 58.6666 6.33333 46.7279 6.33333 31.9999C6.33333 17.2719 18.272 5.33325 33 5.33325C47.728 5.33325 59.6667 17.2719 59.6667 31.9999C59.6667 46.7279 47.728 58.6666 33 58.6666ZM22.3333 34.6666C22.3333 37.4956 23.4571 40.2087 25.4575 42.2091C27.4579 44.2094 30.171 45.3333 33 45.3333C35.829 45.3333 38.5421 44.2094 40.5425 42.2091C42.5429 40.2087 43.6667 37.4956 43.6667 34.6666H22.3333ZM22.3333 29.3333C23.3942 29.3333 24.4116 28.9118 25.1618 28.1617C25.9119 27.4115 26.3333 26.3941 26.3333 25.3333C26.3333 24.2724 25.9119 23.255 25.1618 22.5048C24.4116 21.7547 23.3942 21.3333 22.3333 21.3333C21.2725 21.3333 20.2551 21.7547 19.5049 22.5048C18.7548 23.255 18.3333 24.2724 18.3333 25.3333C18.3333 26.3941 18.7548 27.4115 19.5049 28.1617C20.2551 28.9118 21.2725 29.3333 22.3333 29.3333ZM43.6667 29.3333C44.7275 29.3333 45.7449 28.9118 46.4951 28.1617C47.2452 27.4115 47.6667 26.3941 47.6667 25.3333C47.6667 24.2724 47.2452 23.255 46.4951 22.5048C45.7449 21.7547 44.7275 21.3333 43.6667 21.3333C42.6058 21.3333 41.5884 21.7547 40.8382 22.5048C40.0881 23.255 39.6667 24.2724 39.6667 25.3333C39.6667 26.3941 40.0881 27.4115 40.8382 28.1617C41.5884 28.9118 42.6058 29.3333 43.6667 29.3333Z" fill="black"/>
</svg>
