<svg width="65" height="65" viewBox="0 0 65 65" fill="none" xmlns="http://www.w3.org/2000/svg">
<circle cx="32.5" cy="32.5" r="32.5" fill="white"/>
<path d="M31.6667 6C46.3867 6 58.3333 17.9467 58.3333 32.6667C58.3333 47.3867 46.3867 59.3333 31.6667 59.3333C16.9467 59.3333 5 47.3867 5 32.6667C5 17.9467 16.9467 6 31.6667 6ZM15.728 41.776C19.6427 47.616 25.52 51.3333 32.0933 51.3333C38.6667 51.3333 44.544 47.6187 48.456 41.776C44.0177 37.6287 38.1678 35.3254 32.0933 35.3333C26.018 35.3247 20.167 37.6281 15.728 41.776ZM31.6667 30C33.7884 30 35.8232 29.1571 37.3235 27.6569C38.8238 26.1566 39.6667 24.1217 39.6667 22C39.6667 19.8783 38.8238 17.8434 37.3235 16.3431C35.8232 14.8429 33.7884 14 31.6667 14C29.5449 14 27.5101 14.8429 26.0098 16.3431C24.5095 17.8434 23.6667 19.8783 23.6667 22C23.6667 24.1217 24.5095 26.1566 26.0098 27.6569C27.5101 29.1571 29.5449 30 31.6667 30Z" fill="black"/>
</svg>
